<svg width="69" height="69" viewBox="0 0 69 69" fill="none" xmlns="http://www.w3.org/2000/svg">
<path d="M68.75 8.96741C68.75 4.02248 64.7275 0 59.7826 0C54.8377 0 50.8152 4.02248 50.8152 8.96741C50.8152 13.3046 53.9103 16.9309 58.0076 17.757C53.684 40.0272 46.663 63.4301 42.5155 63.4301C40.4947 63.4301 37.5794 55.8405 35.2368 49.7425L34.9085 48.8887C33.9554 46.4119 33.1264 43.719 32.3236 41.1151C30.1314 33.9969 28.3989 28.3763 24.6683 28.3763C20.6061 28.3763 14.6547 42.0286 11.1501 51.0951C10.45 50.919 9.72142 50.8152 8.96741 50.8152C4.02248 50.8152 0 54.8377 0 59.7826C0 64.7275 4.02248 68.75 8.96741 68.75C13.9123 68.75 17.9348 64.7275 17.9348 59.7826C17.9348 56.6572 16.3255 53.9034 13.8941 52.2978C17.7135 42.4622 22.8363 31.9853 24.6683 31.3653C26.192 31.3653 28.1632 37.7625 29.4672 41.9951C30.2838 44.6471 31.1289 47.3896 32.1184 49.9628L32.446 50.8137C36.0554 60.2117 38.4403 66.4191 42.5154 66.4191C50.9349 66.4191 58.5789 30.6222 61.0374 17.8363C65.3887 17.2228 68.75 13.4853 68.75 8.96741ZM8.96726 65.761C5.67084 65.761 2.98899 63.0799 2.98899 59.7827C2.98899 56.4856 5.67084 53.8045 8.96726 53.8045C12.2637 53.8045 14.9455 56.4856 14.9455 59.7827C14.9455 63.0799 12.2637 65.761 8.96726 65.761ZM59.7826 14.9457C56.4862 14.9457 53.8043 12.2646 53.8043 8.96741C53.8043 5.67024 56.4862 2.98914 59.7826 2.98914C63.079 2.98914 65.7609 5.67024 65.7609 8.96741C65.7609 12.2646 63.079 14.9457 59.7826 14.9457Z" fill="#6D91C6"/>
</svg>
