<svg width="16" height="16" viewBox="0 0 16 16" fill="none" xmlns="http://www.w3.org/2000/svg">
<rect width="16" height="16" rx="8" fill="#002947"/>
<path d="M4.39605 10.7577C4.16173 10.9921 4.16173 11.372 4.39605 11.6063C4.63036 11.8406 5.01026 11.8406 5.24458 11.6063L4.82031 11.182L4.39605 10.7577ZM11.7843 4.81805C11.7843 4.48667 11.5156 4.21805 11.1843 4.21805L5.78427 4.21805C5.4529 4.21805 5.18427 4.48668 5.18427 4.81805C5.18427 5.14942 5.4529 5.41805 5.78427 5.41805L10.5843 5.41805L10.5843 10.218C10.5843 10.5494 10.8529 10.818 11.1843 10.818C11.5156 10.818 11.7843 10.5494 11.7843 10.218L11.7843 4.81805ZM4.82031 11.182L5.24458 11.6063L11.6085 5.24231L11.1843 4.81805L10.76 4.39378L4.39605 10.7577L4.82031 11.182Z" fill="white"/>
</svg>
