<svg width="36" height="47" viewBox="0 0 36 47" fill="none" xmlns="http://www.w3.org/2000/svg">
<path fill-rule="evenodd" clip-rule="evenodd" d="M21.3833 42.8223C27.618 35.5446 35.5 26.342 35.5 18.0656C35.5 8.18163 27.6647 0.166626 18 0.166626C8.33533 0.166626 0.5 8.18163 0.5 18.0656C0.5 26.342 8.382 35.5446 14.6167 42.8223C15.83 44.241 16.9827 45.5826 18 46.8333C19.0173 45.5826 20.17 44.241 21.3833 42.8223ZM18 23.5C18.8426 23.5 19.677 23.334 20.4556 23.0115C21.2341 22.6891 21.9414 22.2164 22.5373 21.6206C23.1331 21.0247 23.6058 20.3174 23.9282 19.5388C24.2507 18.7603 24.4167 17.9259 24.4167 17.0833C24.4167 16.2406 24.2507 15.4062 23.9282 14.6277C23.6058 13.8492 23.1331 13.1419 22.5373 12.546C21.9414 11.9502 21.2341 11.4775 20.4556 11.1551C19.677 10.8326 18.8426 10.6666 18 10.6666C16.2982 10.6666 14.6661 11.3427 13.4627 12.546C12.2594 13.7494 11.5833 15.3815 11.5833 17.0833C11.5833 18.7851 12.2594 20.4172 13.4627 21.6206C14.6661 22.8239 16.2982 23.5 18 23.5Z" fill="#002947"/>
</svg>
