<svg width="195" height="77" viewBox="0 0 195 77" fill="none" xmlns="http://www.w3.org/2000/svg">
<path d="M33.528 75V62.208H0.0400001V47.544L21.048 2.2H41.432L21.36 45.672H33.528V32.776H50.584V45.672H59.632V62.208H50.584V75H33.528ZM97.4401 76.56C92.3441 76.56 87.8201 75.572 83.8681 73.596C79.9507 71.62 76.6574 68.8813 73.9881 65.38C71.3187 61.8787 69.2907 57.84 67.9041 53.264C66.5174 48.688 65.8241 43.8 65.8241 38.6C65.8241 33.3653 66.5174 28.46 67.9041 23.884C69.2907 19.308 71.3187 15.2867 73.9881 11.82C76.6574 8.31866 79.9507 5.58 83.8681 3.604C87.8201 1.628 92.3441 0.639997 97.4401 0.639997C102.536 0.639997 107.043 1.628 110.96 3.604C114.912 5.58 118.223 8.31866 120.892 11.82C123.561 15.2867 125.589 19.308 126.976 23.884C128.363 28.46 129.056 33.3653 129.056 38.6C129.056 43.8 128.363 48.688 126.976 53.264C125.589 57.84 123.561 61.8787 120.892 65.38C118.223 68.8813 114.912 71.62 110.96 73.596C107.043 75.572 102.536 76.56 97.4401 76.56ZM97.4401 58.776C99.2774 58.776 100.924 58.36 102.38 57.528C103.836 56.6613 105.084 55.396 106.124 53.732C107.199 52.0333 108.013 49.936 108.568 47.44C109.123 44.9093 109.4 41.9627 109.4 38.6C109.4 34.128 108.897 30.4013 107.892 27.42C106.921 24.404 105.535 22.1507 103.732 20.66C101.964 19.1693 99.8667 18.424 97.4401 18.424C95.6374 18.424 93.9907 18.8573 92.5001 19.724C91.0441 20.556 89.7787 21.8213 88.7041 23.52C87.6641 25.184 86.8667 27.2813 86.3121 29.812C85.7574 32.308 85.4801 35.2373 85.4801 38.6C85.4801 43.072 85.9654 46.7987 86.9361 49.78C87.9414 52.7613 89.3281 55.0147 91.0961 56.54C92.8987 58.0307 95.0134 58.776 97.4401 58.776ZM168.809 75V62.208H135.321V47.544L156.329 2.2H176.713L156.641 45.672H168.809V32.776H185.865V45.672H194.913V62.208H185.865V75H168.809Z" fill="url(#paint0_radial_711_1020)"/>
<defs>
<radialGradient id="paint0_radial_711_1020" cx="0" cy="0" r="1" gradientTransform="matrix(112.795 55 -50.542 157.409 9.95492 11.5)" gradientUnits="userSpaceOnUse">
<stop stop-color="white"/>
<stop offset="1" stop-color="#6D91C6"/>
</radialGradient>
</defs>
</svg>
