<svg width="192" height="75" viewBox="0 0 192 75" fill="none" xmlns="http://www.w3.org/2000/svg">
<path d="M32.864 73V60.454H0.0200001V46.072L20.624 1.6H40.616L20.93 44.236H32.864V31.588H49.592V44.236H58.466V60.454H49.592V73H32.864ZM95.547 74.53C90.549 74.53 86.112 73.561 82.236 71.623C78.394 69.685 75.164 66.999 72.546 63.565C69.928 60.131 67.939 56.17 66.579 51.682C65.219 47.194 64.539 42.4 64.539 37.3C64.539 32.166 65.219 27.355 66.579 22.867C67.939 18.379 69.928 14.435 72.546 11.035C75.164 7.601 78.394 4.915 82.236 2.977C86.112 1.039 90.549 0.0699966 95.547 0.0699966C100.545 0.0699966 104.965 1.039 108.807 2.977C112.683 4.915 115.93 7.601 118.548 11.035C121.166 14.435 123.155 18.379 124.515 22.867C125.875 27.355 126.555 32.166 126.555 37.3C126.555 42.4 125.875 47.194 124.515 51.682C123.155 56.17 121.166 60.131 118.548 63.565C115.93 66.999 112.683 69.685 108.807 71.623C104.965 73.561 100.545 74.53 95.547 74.53ZM95.547 57.088C97.349 57.088 98.964 56.68 100.392 55.864C101.82 55.014 103.044 53.773 104.064 52.141C105.118 50.475 105.917 48.418 106.461 45.97C107.005 43.488 107.277 40.598 107.277 37.3C107.277 32.914 106.784 29.259 105.798 26.335C104.846 23.377 103.486 21.167 101.718 19.705C99.984 18.243 97.927 17.512 95.547 17.512C93.779 17.512 92.164 17.937 90.702 18.787C89.274 19.603 88.033 20.844 86.979 22.51C85.959 24.142 85.177 26.199 84.633 28.681C84.089 31.129 83.817 34.002 83.817 37.3C83.817 41.686 84.293 45.341 85.245 48.265C86.231 51.189 87.591 53.399 89.325 54.895C91.093 56.357 93.167 57.088 95.547 57.088ZM165.544 73V60.454H132.7V46.072L153.304 1.6H173.296L153.61 44.236H165.544V31.588H182.272V44.236H191.146V60.454H182.272V73H165.544Z" fill="#6D91C6"/>
</svg>
