<svg width="250" height="110" viewBox="0 0 250 110" fill="none" xmlns="http://www.w3.org/2000/svg">
<path d="M48.496 103V87.256H7.28V69.208L33.136 13.4H58.224L33.52 66.904H48.496V51.032H69.488V66.904H80.624V87.256H69.488V103H48.496ZM127.157 104.92C120.885 104.92 115.317 103.704 110.453 101.272C105.632 98.84 101.578 95.4693 98.293 91.16C95.0077 86.8507 92.5117 81.88 90.805 76.248C89.0983 70.616 88.245 64.6 88.245 58.2C88.245 51.7573 89.0983 45.72 90.805 40.088C92.5117 34.456 95.0077 29.5067 98.293 25.24C101.578 20.9307 105.632 17.56 110.453 15.128C115.317 12.696 120.885 11.48 127.157 11.48C133.429 11.48 138.976 12.696 143.797 15.128C148.661 17.56 152.736 20.9307 156.021 25.24C159.306 29.5067 161.802 34.456 163.509 40.088C165.216 45.72 166.069 51.7573 166.069 58.2C166.069 64.6 165.216 70.616 163.509 76.248C161.802 81.88 159.306 86.8507 156.021 91.16C152.736 95.4693 148.661 98.84 143.797 101.272C138.976 103.704 133.429 104.92 127.157 104.92ZM127.157 83.032C129.418 83.032 131.445 82.52 133.237 81.496C135.029 80.4293 136.565 78.872 137.845 76.824C139.168 74.7333 140.17 72.152 140.853 69.08C141.536 65.9653 141.877 62.3387 141.877 58.2C141.877 52.696 141.258 48.1093 140.021 44.44C138.826 40.728 137.12 37.9547 134.901 36.12C132.725 34.2853 130.144 33.368 127.157 33.368C124.938 33.368 122.912 33.9013 121.077 34.968C119.285 35.992 117.728 37.5493 116.405 39.64C115.125 41.688 114.144 44.2693 113.461 47.384C112.778 50.456 112.437 54.0613 112.437 58.2C112.437 63.704 113.034 68.2907 114.229 71.96C115.466 75.6293 117.173 78.4027 119.349 80.28C121.568 82.1147 124.17 83.032 127.157 83.032ZM214.996 103V87.256H173.78V69.208L199.636 13.4H224.724L200.02 66.904H214.996V51.032H235.988V66.904H247.124V87.256H235.988V103H214.996Z" fill="url(#paint0_radial_2037_308)"/>
<path d="M42.496 97V81.256H1.28V63.208L27.136 7.39999H52.224L27.52 60.904H42.496V45.032H63.488V60.904H74.624V81.256H63.488V97H42.496ZM121.157 98.92C114.885 98.92 109.317 97.704 104.453 95.272C99.6317 92.84 95.5783 89.4693 92.293 85.16C89.0077 80.8507 86.5117 75.88 84.805 70.248C83.0983 64.616 82.245 58.6 82.245 52.2C82.245 45.7573 83.0983 39.72 84.805 34.088C86.5117 28.456 89.0077 23.5067 92.293 19.24C95.5783 14.9307 99.6317 11.56 104.453 9.128C109.317 6.696 114.885 5.48 121.157 5.48C127.429 5.48 132.976 6.696 137.797 9.128C142.661 11.56 146.736 14.9307 150.021 19.24C153.306 23.5067 155.802 28.456 157.509 34.088C159.216 39.72 160.069 45.7573 160.069 52.2C160.069 58.6 159.216 64.616 157.509 70.248C155.802 75.88 153.306 80.8507 150.021 85.16C146.736 89.4693 142.661 92.84 137.797 95.272C132.976 97.704 127.429 98.92 121.157 98.92ZM121.157 77.032C123.418 77.032 125.445 76.52 127.237 75.496C129.029 74.4293 130.565 72.872 131.845 70.824C133.168 68.7333 134.17 66.152 134.853 63.08C135.536 59.9653 135.877 56.3387 135.877 52.2C135.877 46.696 135.258 42.1093 134.021 38.44C132.826 34.728 131.12 31.9547 128.901 30.12C126.725 28.2853 124.144 27.368 121.157 27.368C118.938 27.368 116.912 27.9013 115.077 28.968C113.285 29.992 111.728 31.5493 110.405 33.64C109.125 35.688 108.144 38.2693 107.461 41.384C106.778 44.456 106.437 48.0613 106.437 52.2C106.437 57.704 107.034 62.2907 108.229 65.96C109.466 69.6293 111.173 72.4027 113.349 74.28C115.568 76.1147 118.17 77.032 121.157 77.032ZM208.996 97V81.256H167.78V63.208L193.636 7.39999H218.724L194.02 60.904H208.996V45.032H229.988V60.904H241.124V81.256H229.988V97H208.996Z" fill="url(#paint1_radial_2037_308)"/>
<defs>
<radialGradient id="paint0_radial_2037_308" cx="0" cy="0" r="1" gradientUnits="userSpaceOnUse" gradientTransform="translate(19.5 30.5) rotate(21.5879) scale(149.486 169.283)">
<stop stop-color="white"/>
<stop offset="1" stop-color="#EEF2F5"/>
</radialGradient>
<radialGradient id="paint1_radial_2037_308" cx="0" cy="0" r="1" gradientUnits="userSpaceOnUse" gradientTransform="translate(13.5 24.5) rotate(21.5879) scale(149.486 169.283)">
<stop stop-color="white"/>
<stop offset="1" stop-color="#6D91C6"/>
</radialGradient>
</defs>
</svg>
