<svg xmlns="http://www.w3.org/2000/svg">
  <symbol id="arrow" width="22" height="20" viewBox="0 0 22 20" fill="none" xmlns="http://www.w3.org/2000/svg">
    <path d="M2.5 10H17.5M17.5 10L11.25 4M17.5 10L11.25 16" stroke="currentColor" stroke-width="5" stroke-linecap="square" />
  </symbol>

  <symbol id="logo" width="216" height="64" viewBox="0 0 216 64" fill="none" xmlns="http://www.w3.org/2000/svg">
    <g clip-path="url(#clip0_81_6)">
      <path fill-rule="evenodd" clip-rule="evenodd" d="M129.826 57.3245L138.628 17.1026L145.797 43.7431H215.69V45.7526H144.251L138.628 25.524L130.252 63.9496L123.301 45.7306H37.2992V43.7431H124.674L129.826 57.3245Z" fill="#6D91C6" />
      <path fill-rule="evenodd" clip-rule="evenodd" d="M128.796 45.7306L138.629 0.949917L148.373 39.768H215.641V41.7555H146.656L138.629 9.95508L129.357 52.3459L125.361 41.7555H43.0484V39.768H126.735L128.796 45.7306Z" fill="#002947" />
      <path fill-rule="evenodd" clip-rule="evenodd" d="M25.7511 15.284C28.553 13.6801 31.9444 12.8691 35.1828 12.718L35.8699 12.686L35.9363 14.0104L35.2498 14.0425C32.2375 14.1831 29.0596 14.932 26.4525 16.4241C24.6027 17.4828 22.8253 19.0668 22.2204 21.1154C21.8279 21.0692 21.3352 21.1079 20.8015 21.2059C21.5517 18.4854 23.1193 16.7902 25.7511 15.284Z" fill="#002947" />
      <path fill-rule="evenodd" clip-rule="evenodd" d="M20.5638 21.4593C20.6225 18.8946 22.2494 16.6837 24.2257 15.0922C26.7594 13.0522 30.0712 11.7823 33.277 11.1404L33.5762 11.0803L33.7005 11.6575L33.4012 11.7172C30.296 12.3392 27.0721 13.5681 24.6173 15.5446C22.8589 16.9606 21.3575 18.918 21.189 21.1792C21.0026 21.2091 20.8847 21.2789 20.5638 21.4593Z" fill="#002947" />
      <path fill-rule="evenodd" clip-rule="evenodd" d="M21.6759 3.75273C33.6471 3.75273 43.3518 13.1127 43.3518 24.6585C43.3518 36.2046 33.6471 45.5644 21.6759 45.5644C9.70469 45.5644 0 36.2046 0 24.6585C0 13.1127 9.70469 3.75273 21.6759 3.75273ZM21.6756 4.73503C33.0846 4.73503 42.3333 13.6551 42.3333 24.6585C42.3333 35.6623 33.0846 44.5824 21.6756 44.5824C10.2669 44.5824 1.01819 35.6623 1.01819 24.6585C1.01819 13.6551 10.2669 4.73503 21.6756 4.73503Z" fill="#002947" />
      <path fill-rule="evenodd" clip-rule="evenodd" d="M17.6835 15.251C18.4888 12.2059 20.2923 9.31959 22.4715 7.00419L22.9339 6.51307L23.9517 7.40414L23.4899 7.89506C21.463 10.0489 19.765 12.7457 19.0154 15.5788C18.4835 17.589 18.388 19.9211 19.4623 21.7823C19.1508 22.0172 18.8308 22.3807 18.5253 22.8138C17.0613 20.3785 16.9269 18.1108 17.6835 15.251Z" fill="#002947" />
      <path fill-rule="evenodd" clip-rule="evenodd" d="M18.545 23.1549C16.7062 21.3014 16.2356 18.6284 16.4664 16.1554C16.7622 12.9849 18.173 9.82833 19.9693 7.18803L20.1368 6.94151L20.6477 7.26495L20.48 7.51127C18.7403 10.0688 17.3616 13.1364 17.0749 16.2082C16.8697 18.4087 17.2431 20.8166 18.7818 22.5304C18.6717 22.6788 18.6397 22.8084 18.545 23.1549Z" fill="#002947" />
      <path fill-rule="evenodd" clip-rule="evenodd" d="M11.9573 20.7283C10.2943 18.026 9.45334 14.7552 9.29666 11.6318L9.26355 10.9692L10.6367 10.905L10.67 11.5671C10.8158 14.4725 11.5924 17.5374 13.1394 20.0519C14.2371 21.8361 15.8793 23.5502 18.0034 24.1336C17.9555 24.5122 17.9957 24.9875 18.0972 25.5021C15.2766 24.7785 13.5189 23.2666 11.9573 20.7283Z" fill="#002947" />
      <path fill-rule="evenodd" clip-rule="evenodd" d="M18.3589 25.7302C15.6999 25.6736 13.4074 24.1044 11.7574 22.1984C9.64212 19.7547 8.32552 16.5606 7.6599 13.4686L7.5976 13.18L8.1961 13.0602L8.25799 13.3488C8.90287 16.3437 10.177 19.4531 12.2264 21.8206C13.6946 23.5166 15.7241 24.9646 18.0685 25.1271C18.0995 25.307 18.1719 25.4206 18.3589 25.7302Z" fill="#002947" />
      <path fill-rule="evenodd" clip-rule="evenodd" d="M11.9227 28.508C8.76559 27.7313 5.77294 25.9919 3.37221 23.8901L2.86301 23.4442L3.78693 22.4625L4.2959 22.9079C6.52908 24.8629 9.32529 26.5005 12.2627 27.2235C14.3469 27.7364 16.7649 27.8285 18.6946 26.7925C18.9383 27.0927 19.315 27.4015 19.7641 27.6962C17.2393 29.1081 14.8879 29.2378 11.9227 28.508Z" fill="#002947" />
      <path fill-rule="evenodd" clip-rule="evenodd" d="M20.1174 27.678C18.1955 29.4514 15.4241 29.9052 12.86 29.6827C9.57273 29.3974 6.29994 28.0367 3.56239 26.3043L3.30676 26.1427L3.64209 25.6499L3.89749 25.8117C6.54923 27.4896 9.72983 28.8194 12.9148 29.0958C15.1963 29.2938 17.693 28.9335 19.4699 27.4496C19.6237 27.5556 19.7581 27.5866 20.1174 27.678Z" fill="#002947" />
      <path fill-rule="evenodd" clip-rule="evenodd" d="M17.6023 34.0317C14.8004 35.6357 11.4091 36.4467 8.17058 36.5978L7.4836 36.6298L7.41718 35.3054L8.10361 35.2733C11.1159 35.1326 14.2938 34.3837 16.9009 32.8916C18.7507 31.8329 20.5281 30.2489 21.133 28.2003C21.5255 28.2466 22.0182 28.2079 22.5518 28.11C21.8017 30.8304 20.2341 32.5256 17.6023 34.0317Z" fill="#002947" />
      <path fill-rule="evenodd" clip-rule="evenodd" d="M22.7869 27.8565C22.7282 30.4212 21.1013 32.6322 19.125 34.2236C16.5913 36.2637 13.2796 37.5334 10.0737 38.1754L9.77446 38.2355L9.65027 37.6583L9.94949 37.5986C13.0547 36.9766 16.2786 35.7478 18.7334 33.7712C20.4919 32.3552 21.9932 30.3977 22.1617 28.1366C22.3482 28.1068 22.4659 28.0369 22.7869 27.8565Z" fill="#002947" />
      <path fill-rule="evenodd" clip-rule="evenodd" d="M25.6674 34.0653C24.8621 37.1103 23.0588 39.9967 20.8796 42.3121L20.4172 42.8032L19.3992 41.9121L19.8611 41.4212C21.8881 39.2674 23.5861 36.5706 24.3356 33.7376C24.8675 31.7273 24.9629 29.3952 23.8888 27.534C24.2001 27.2991 24.5202 26.9357 24.8257 26.5024C26.2898 28.9378 26.4241 31.2055 25.6674 34.0653Z" fill="#002947" />
      <path fill-rule="evenodd" clip-rule="evenodd" d="M24.8071 26.1612C26.6459 28.0146 27.1165 30.6877 26.8858 33.1607C26.5899 36.3312 25.1791 39.4877 23.3829 42.128L23.2153 42.3746L22.7043 42.0511L22.8721 41.8048C24.6118 39.2473 25.9906 36.1797 26.2773 33.1079C26.4824 30.9075 26.109 28.4994 24.5703 26.7857C24.6803 26.6373 24.7124 26.5076 24.8071 26.1612Z" fill="#002947" />
      <path fill-rule="evenodd" clip-rule="evenodd" d="M31.3957 28.5873C33.0586 31.2897 33.8996 34.5605 34.0562 37.6839L34.0894 38.3466L32.7162 38.4106L32.6829 37.7485C32.5371 34.8432 31.7607 31.7783 30.2136 29.2638C29.1159 27.4796 27.4736 25.7655 25.3495 25.182C25.3974 24.8034 25.3573 24.3283 25.2557 23.8136C28.0764 24.5371 29.8341 26.049 31.3957 28.5873Z" fill="#002947" />
      <path fill-rule="evenodd" clip-rule="evenodd" d="M24.9921 23.5856C27.6512 23.6422 29.9436 25.2114 31.5936 27.1174C33.7089 29.561 35.0255 32.7551 35.6911 35.8471L35.7534 36.1358L35.155 36.2556L35.093 35.967C34.4481 32.972 33.174 29.8627 31.1246 27.4951C29.6564 25.7992 27.6269 24.3512 25.2825 24.1886C25.2515 24.0087 25.1791 23.8952 24.9921 23.5856Z" fill="#002947" />
      <path fill-rule="evenodd" clip-rule="evenodd" d="M31.4283 20.8083C34.5854 21.585 37.5781 23.3243 39.9787 25.4261L40.488 25.8721L39.5641 26.8538L39.0551 26.4084C36.8219 24.4535 34.0258 22.8158 31.0884 22.0928C29.0041 21.5799 26.5861 21.4878 24.6564 22.5238C24.4128 22.2235 24.0359 21.9148 23.5868 21.6201C26.1118 20.2081 28.4631 20.0785 31.4283 20.8083Z" fill="#002947" />
      <path fill-rule="evenodd" clip-rule="evenodd" d="M23.2362 21.6385C25.158 19.8651 27.9294 19.4113 30.4936 19.6337C33.7808 19.9192 37.0535 21.2797 39.7911 23.0122L40.0467 23.1738L39.7114 23.6667L39.4561 23.5048C36.8044 21.8268 33.6238 20.4971 30.4389 20.2207C28.1573 20.0227 25.6606 20.383 23.8836 21.8669C23.7299 21.7609 23.5955 21.7299 23.2362 21.6385Z" fill="#002947" />
      <path fill-rule="evenodd" clip-rule="evenodd" d="M21.6754 6.39542C32.1335 6.39542 40.6114 14.5721 40.6114 24.6588C40.6114 34.7455 32.1335 42.9222 21.6754 42.9222C11.2171 42.9222 2.73926 34.7455 2.73926 24.6588C2.73926 14.5721 11.2171 6.39542 21.6754 6.39542ZM21.6754 8.05573C31.1828 8.05573 38.8899 15.4891 38.8899 24.6588C38.8899 33.8285 31.1828 41.2619 21.6754 41.2619C12.1679 41.2619 4.46075 33.8285 4.46075 24.6588C4.46075 15.4891 12.1679 8.05573 21.6754 8.05573Z" fill="#002947" />
      <path fill-rule="evenodd" clip-rule="evenodd" d="M21.6768 20.6068C23.9969 20.6068 25.8778 22.4208 25.8778 24.6585C25.8778 26.8963 23.9969 28.7103 21.6768 28.7103C19.3566 28.7103 17.4757 26.8963 17.4757 24.6585C17.4757 22.4208 19.3566 20.6068 21.6768 20.6068ZM21.6766 21.5317C23.467 21.5317 24.9188 22.9316 24.9188 24.6585C24.9188 26.3856 23.467 27.7857 21.6766 27.7857C19.886 27.7857 18.4345 26.3856 18.4345 24.6585C18.4345 22.9316 19.886 21.5317 21.6766 21.5317Z" fill="#002947" />
      <path fill-rule="evenodd" clip-rule="evenodd" d="M62.3289 3.7528V10.4938H56.9376V37.4433H47.8567V10.4938H42.4802V3.7528H62.3289ZM64.4056 3.7528H79.5554V10.4938H73.4941V16.8796H79.1652V23.2936H73.4941V30.7022H80.1592V37.4433H64.4056V3.7528ZM104.95 37.4433H95.8393V10.4726H93.1885V29.5588C93.1885 32.0661 92.8567 33.8703 92.1863 34.9641C91.5159 36.0652 90.4993 36.7472 89.1302 37.0243C87.7674 37.3011 85.5871 37.4433 82.597 37.4433H81.1682V31.6399C82.2803 31.6399 83.0387 31.5051 83.4591 31.2422C83.8712 30.9794 84.0849 30.0771 84.0849 28.5358V3.73153H104.95V37.4433ZM108.573 3.7528H123.723V10.4938H117.661V16.8796H123.333V23.2936H117.661V30.7022H124.327V37.4433H108.573V3.7528ZM172.415 18.4422H163.334V12.575C163.334 10.8703 163.231 9.80283 163.039 9.37849C162.85 8.95999 162.421 8.74633 161.758 8.74633C161.006 8.74633 160.53 9.00139 160.329 9.51358C160.127 10.0292 160.026 11.1425 160.026 12.8448V28.4932C160.026 30.1317 160.129 31.2015 160.329 31.6968C160.532 32.2008 160.984 32.4498 161.691 32.4498C162.369 32.4498 162.81 32.1994 163.017 31.6968C163.221 31.2002 163.334 30.0277 163.334 28.1808V23.9615H172.415V25.2684C172.415 28.7465 172.157 31.2208 171.649 32.677C171.141 34.1332 170.005 35.4129 168.261 36.5055C166.517 37.5985 164.357 38.1536 161.801 38.1536C159.136 38.1536 156.939 37.6836 155.217 36.7541C153.496 35.8249 152.343 34.5372 151.786 32.8971C151.226 31.2509 150.945 28.7775 150.945 25.4745V15.6364C150.945 13.2072 151.032 11.3868 151.204 10.1741C151.375 8.95999 151.892 7.78801 152.75 6.66512C153.606 5.54555 154.791 4.65103 156.307 4.00872C157.823 3.36755 159.57 3.04265 161.537 3.04265C164.218 3.04265 166.43 3.5457 168.165 4.54138C169.904 5.53925 171.049 6.7859 171.597 8.27767C172.144 9.76679 172.415 12.0945 172.415 15.2387V18.4422ZM175.67 3.7528H190.819V10.4938H184.759V16.8796H190.43V23.2936H184.759V30.7022H191.424V37.4433H175.67V3.7528ZM214.918 3.7528V37.4433H205.837V23.2936H203.12V37.4433H194.031V3.7528H203.12V15.7998H205.837V3.7528H214.918Z" fill="#6D91C6" />
      <path d="M60.7918 58.9359H59.4286V50.4553H63.1585C64.0678 50.4553 64.7742 50.6855 65.2777 51.1459C65.7982 51.5901 66.0584 52.1797 66.0584 52.9147C66.0584 53.6497 65.7982 54.2555 65.2777 54.732C64.7742 55.2007 64.0678 55.4346 63.1585 55.4346H60.7918V58.9359ZM60.7918 51.679V54.211H63.047C63.5597 54.211 63.9602 54.102 64.2491 53.8839C64.5388 53.6577 64.6828 53.3427 64.6828 52.9389C64.6828 52.5351 64.5388 52.2241 64.2491 52.0061C63.9687 51.788 63.5675 51.679 63.047 51.679H60.7918ZM72.9086 57.9182C73.0411 57.9182 73.1603 57.8902 73.268 57.8334V58.8269C73.086 58.9563 72.8257 59.0207 72.4873 59.0207C71.7933 59.0207 71.368 58.7383 71.2108 58.1726C70.657 58.7867 69.9095 59.0934 68.9677 59.0934C68.3147 59.0934 67.7694 58.9154 67.3318 58.5603C66.9019 58.2128 66.6874 57.7244 66.6874 57.0944C66.6874 56.4644 66.9228 55.9798 67.3938 55.6406C67.8562 55.293 68.4348 55.1196 69.1288 55.1196C69.8638 55.1196 70.5129 55.2733 71.0745 55.58V55.2529C71.0745 54.3887 70.4796 53.9566 69.2899 53.9566C68.5959 53.9566 67.9553 54.1343 67.369 54.4897V53.3387C67.9724 52.9995 68.7113 52.8299 69.5873 52.8299C70.4463 52.8299 71.1279 53.0318 71.6321 53.4356C72.1441 53.8314 72.4005 54.3887 72.4005 55.1075V57.3246C72.4005 57.5101 72.4462 57.6555 72.5368 57.7607C72.636 57.866 72.7599 57.9182 72.9086 57.9182ZM71.0745 57.2519V56.525C70.5625 56.2426 70.0211 56.101 69.451 56.101C69.0049 56.101 68.654 56.182 68.3976 56.3433C68.1497 56.5045 68.0258 56.7309 68.0258 57.0217C68.0258 57.3284 68.1412 57.5631 68.3728 57.7244C68.6122 57.8857 68.9344 57.9667 69.3395 57.9667C69.6702 57.9667 69.9924 57.9023 70.3061 57.7728C70.6198 57.6358 70.8762 57.4616 71.0745 57.2519ZM77.5645 59.0934C76.5149 59.0934 75.697 58.742 75.1107 58.0394C74.5321 57.3284 74.2432 56.3758 74.2432 55.1802C74.2432 53.8637 74.5569 52.846 75.185 52.1272C75.4739 51.788 75.8705 51.4972 76.3747 51.2549C76.8952 51.0045 77.4235 50.8148 77.961 50.6855C78.5141 50.5482 79.1957 50.415 80.0059 50.2857V51.4972C78.6837 51.7395 77.8495 51.9213 77.5025 52.0424C76.5769 52.3493 75.9735 52.8299 75.6931 53.4841C75.5692 53.7587 75.4949 54.0939 75.4701 54.4897C75.7257 54.1262 76.0688 53.8394 76.4987 53.6295C76.9363 53.4195 77.4158 53.3145 77.9363 53.3145C78.7209 53.3145 79.3777 53.5649 79.9067 54.0656C80.4272 54.5661 80.6875 55.2203 80.6875 56.0283C80.6875 56.9407 80.3854 57.6797 79.7828 58.2453C79.1957 58.811 78.4568 59.0934 77.5645 59.0934ZM77.5645 57.9425C78.085 57.9425 78.5102 57.7728 78.8409 57.4336C79.1794 57.0861 79.349 56.6499 79.349 56.1252C79.349 55.6247 79.1833 55.2203 78.8533 54.9137C78.5311 54.5987 78.1175 54.4412 77.614 54.4412C77.2004 54.4412 76.8039 54.554 76.4243 54.7804C76.0525 55.0068 75.7628 55.293 75.5568 55.6406C75.5893 56.3675 75.7799 56.9331 76.1269 57.3367C76.4739 57.7403 76.9526 57.9425 77.5645 57.9425ZM85.0784 57.9425C85.64 57.9425 86.1156 57.7524 86.5036 57.373C86.8839 57.0013 87.0737 56.5288 87.0737 55.9556C87.0737 55.39 86.8839 54.922 86.5036 54.5502C86.1156 54.1706 85.64 53.9808 85.0784 53.9808C84.5084 53.9808 84.0289 54.1706 83.6409 54.5502C83.2605 54.922 83.0708 55.39 83.0708 55.9556C83.0708 56.5288 83.2605 57.0013 83.6409 57.373C84.0289 57.7524 84.5084 57.9425 85.0784 57.9425ZM85.0784 59.0934C84.1033 59.0934 83.3024 58.7905 82.6742 58.1848C82.046 57.579 81.7323 56.8362 81.7323 55.9556C81.7323 55.0833 82.046 54.3443 82.6742 53.7385C83.3024 53.1328 84.1033 52.8299 85.0784 52.8299C86.0366 52.8299 86.8343 53.1328 87.4703 53.7385C88.0984 54.3443 88.4121 55.0833 88.4121 55.9556C88.4121 56.8279 88.0984 57.5707 87.4703 58.1848C86.8343 58.7905 86.0366 59.0934 85.0784 59.0934ZM92.4073 58.9359H91.0688V54.1383H89.0116V52.9874H94.4521V54.1383H92.4073V58.9359ZM101.386 57.9182C101.518 57.9182 101.638 57.8902 101.745 57.8334V58.8269C101.563 58.9563 101.303 59.0207 100.965 59.0207C100.271 59.0207 99.8446 58.7383 99.6881 58.1726C99.1343 58.7867 98.3868 59.0934 97.445 59.0934C96.792 59.0934 96.2467 58.9154 95.8091 58.5603C95.3792 58.2128 95.1647 57.7244 95.1647 57.0944C95.1647 56.4644 95.4002 55.9798 95.8711 55.6406C96.3335 55.293 96.9121 55.1196 97.6061 55.1196C98.3411 55.1196 98.9894 55.2733 99.5518 55.58V55.2529C99.5518 54.3887 98.9569 53.9566 97.7672 53.9566C97.0732 53.9566 96.4326 54.1343 95.8463 54.4897V53.3387C96.4489 52.9995 97.1886 52.8299 98.0646 52.8299C98.9236 52.8299 99.6052 53.0318 100.109 53.4356C100.621 53.8314 100.878 54.3887 100.878 55.1075V57.3246C100.878 57.5101 100.923 57.6555 101.014 57.7607C101.113 57.866 101.237 57.9182 101.386 57.9182ZM99.5518 57.2519V56.525C99.039 56.2426 98.4984 56.101 97.9283 56.101C97.4822 56.101 97.1305 56.182 96.8749 56.3433C96.6271 56.5045 96.5031 56.7309 96.5031 57.0217C96.5031 57.3284 96.6185 57.5631 96.8501 57.7244C97.0895 57.8857 97.4117 57.9667 97.8168 57.9667C98.1467 57.9667 98.4689 57.9023 98.7834 57.7728C99.0971 57.6358 99.3535 57.4616 99.5518 57.2519ZM102.633 55.9556C102.633 55.0591 102.923 54.316 103.5 53.7264C104.088 53.1288 104.839 52.8299 105.756 52.8299C106.384 52.8299 106.917 52.9914 107.355 53.3145C108.214 53.9121 108.644 54.8084 108.644 56.004V56.3433H103.984C104.067 56.8438 104.311 57.236 104.715 57.5184C105.129 57.8009 105.649 57.9425 106.276 57.9425C106.97 57.9425 107.623 57.7645 108.235 57.4094V58.5119C107.673 58.8995 106.926 59.0934 105.991 59.0934C105.058 59.0934 104.261 58.8026 103.6 58.2211C102.955 57.6396 102.633 56.8847 102.633 55.9556ZM103.996 55.3498H107.293C107.276 54.978 107.132 54.6509 106.859 54.3685C106.579 54.0777 106.19 53.9324 105.694 53.9324C105.223 53.9324 104.831 54.0696 104.517 54.3443C104.211 54.6108 104.038 54.9462 103.996 55.3498ZM111.448 58.9359H110.159V52.9874H111.473L113.555 55.4589L115.649 52.9874H116.963V58.9359H115.674V54.7683L113.815 56.9611H113.295L111.448 54.7683V58.9359Z" fill="#002947" />
      <path d="M144.998 59.0813C144.081 59.0813 143.305 58.7867 142.669 58.1969C142.033 57.5994 141.714 56.8438 141.714 55.9313C141.714 55.0189 142.033 54.2716 142.669 53.69C143.313 53.1085 144.094 52.8178 145.011 52.8178C145.705 52.8178 146.317 52.955 146.845 53.2297V54.3564C146.292 54.098 145.747 53.9687 145.209 53.9687C144.598 53.9687 144.086 54.1544 143.672 54.526C143.26 54.9053 143.053 55.3778 143.053 55.9435C143.053 56.5167 143.26 56.9937 143.672 57.373C144.086 57.7448 144.598 57.9303 145.209 57.9303C145.862 57.9303 146.441 57.7812 146.944 57.4821V58.5967C146.366 58.92 145.717 59.0813 144.998 59.0813ZM157.383 58.9238H151.347V57.9546L154.074 55.4589C154.652 54.9341 155.078 54.4813 155.35 54.102C155.598 53.7385 155.722 53.3508 155.722 52.9389C155.722 52.5109 155.561 52.1676 155.239 51.9091C154.925 51.6426 154.512 51.5093 154 51.5093C153.141 51.5093 152.33 51.8607 151.571 52.5633V51.1701C152.281 50.5805 153.136 50.2857 154.136 50.2857C154.954 50.2857 155.648 50.5159 156.218 50.9763C156.796 51.4366 157.085 52.0384 157.085 52.7814C157.085 53.3548 156.941 53.8758 156.652 54.3443C156.346 54.8205 155.858 55.3703 155.189 55.9919L153.318 57.7365H157.383V58.9238ZM162.379 59.0813C161.28 59.0813 160.397 58.6572 159.727 57.8092C159.066 56.9452 158.736 55.9033 158.736 54.6835C158.736 53.472 159.066 52.4341 159.727 51.5699C160.397 50.7138 161.28 50.2857 162.379 50.2857C163.495 50.2857 164.379 50.7138 165.032 51.5699C165.701 52.4261 166.035 53.4639 166.035 54.6835C166.035 55.9109 165.701 56.9528 165.032 57.8092C164.379 58.6572 163.495 59.0813 162.379 59.0813ZM162.379 57.8334C163.065 57.8334 163.619 57.5305 164.04 56.9248C164.461 56.319 164.672 55.5717 164.672 54.6835C164.672 53.7951 164.461 53.048 164.04 52.4422C163.619 51.8364 163.065 51.5336 162.379 51.5336C161.702 51.5336 161.153 51.8405 160.731 52.4543C160.31 53.0601 160.099 53.8031 160.099 54.6835C160.099 55.5558 160.31 56.3031 160.731 56.9248C161.153 57.5305 161.702 57.8334 162.379 57.8334ZM171.129 59.0813C170.031 59.0813 169.146 58.6572 168.477 57.8092C167.816 56.9452 167.485 55.9033 167.485 54.6835C167.485 53.472 167.816 52.4341 168.477 51.5699C169.146 50.7138 170.031 50.2857 171.129 50.2857C172.244 50.2857 173.129 50.7138 173.781 51.5699C174.45 52.4261 174.785 53.4639 174.785 54.6835C174.785 55.9109 174.45 56.9528 173.781 57.8092C173.129 58.6572 172.244 59.0813 171.129 59.0813ZM171.129 57.8334C171.815 57.8334 172.368 57.5305 172.789 56.9248C173.211 56.319 173.422 55.5717 173.422 54.6835C173.422 53.7951 173.211 53.048 172.789 52.4422C172.368 51.8364 171.815 51.5336 171.129 51.5336C170.452 51.5336 169.902 51.8405 169.481 52.4543C169.059 53.0601 168.849 53.8031 168.849 54.6835C168.849 55.5558 169.059 56.3031 169.481 56.9248C169.902 57.5305 170.452 57.8334 171.129 57.8334ZM179.631 59.0813C178.582 59.0813 177.752 58.7299 177.14 58.0273C176.545 57.3246 176.248 56.3516 176.248 55.1075C176.248 53.7506 176.591 52.6078 177.276 51.6789C177.954 50.7501 178.905 50.2857 180.127 50.2857C180.846 50.2857 181.482 50.4634 182.035 50.8188V52.0303C181.499 51.6749 180.912 51.4972 180.276 51.4972C179.441 51.4972 178.801 51.7799 178.355 52.3453C177.917 52.9187 177.682 53.6052 177.648 54.4048C178.152 53.7668 178.9 53.4477 179.891 53.4477C180.677 53.4477 181.337 53.6982 181.874 54.1989C182.412 54.6994 182.68 55.3498 182.68 56.1494C182.68 57.0134 182.387 57.7206 181.8 58.2696C181.222 58.8109 180.499 59.0813 179.631 59.0813ZM179.544 57.9061C180.065 57.9061 180.491 57.7448 180.821 57.4215C181.16 57.0906 181.329 56.6741 181.329 56.1736C181.329 55.6807 181.155 55.2855 180.808 54.9864C180.47 54.6797 180.045 54.526 179.532 54.526C179.111 54.526 178.71 54.6555 178.33 54.9137C177.967 55.1719 177.727 55.4914 177.611 55.8708C177.661 56.5091 177.855 57.0096 178.194 57.373C178.533 57.7282 178.983 57.9061 179.544 57.9061ZM188.931 58.9238H187.593V52.9753H192.302V54.1262H188.931V58.9238ZM196.363 57.9303C196.925 57.9303 197.399 57.7403 197.788 57.3609C198.168 56.9891 198.358 56.5167 198.358 55.9435C198.358 55.3778 198.168 54.9099 197.788 54.5381C197.399 54.1585 196.925 53.9687 196.363 53.9687C195.793 53.9687 195.314 54.1585 194.925 54.5381C194.545 54.9099 194.355 55.3778 194.355 55.9435C194.355 56.5167 194.545 56.9891 194.925 57.3609C195.314 57.7403 195.793 57.9303 196.363 57.9303ZM196.363 59.0813C195.388 59.0813 194.586 58.7784 193.959 58.1726C193.331 57.5669 193.017 56.8241 193.017 55.9435C193.017 55.0712 193.331 54.3322 193.959 53.7264C194.586 53.1206 195.388 52.8178 196.363 52.8178C197.321 52.8178 198.118 53.1206 198.755 53.7264C199.382 54.3322 199.697 55.0712 199.697 55.9435C199.697 56.8157 199.382 57.5586 198.755 58.1726C198.118 58.7784 197.321 59.0813 196.363 59.0813ZM201.598 60.5593H200.309V57.7728H201.102C201.424 57.2966 201.647 56.7105 201.771 56.0162C201.895 55.346 201.965 54.3321 201.982 52.9753H206.827V57.7728H207.881V60.5593H206.617V58.9238H201.598V60.5593ZM202.515 57.7728H205.489V54.1262H203.209C203.209 55.6686 202.977 56.8847 202.515 57.7728ZM214.933 57.9061C215.065 57.9061 215.185 57.8781 215.292 57.8213V58.8147C215.11 58.9442 214.85 59.0086 214.512 59.0086C213.818 59.0086 213.392 58.7261 213.235 58.1605C212.681 58.7746 211.934 59.0813 210.992 59.0813C210.339 59.0813 209.794 58.9033 209.356 58.5482C208.926 58.2006 208.712 57.7123 208.712 57.0823C208.712 56.4523 208.947 55.9677 209.418 55.6285C209.881 55.2809 210.459 55.1075 211.153 55.1075C211.888 55.1075 212.537 55.2612 213.099 55.5679V55.2408C213.099 54.3766 212.504 53.9445 211.314 53.9445C210.62 53.9445 209.98 54.1222 209.393 54.4775V53.3266C209.997 52.9874 210.736 52.8178 211.612 52.8178C212.471 52.8178 213.152 53.0197 213.657 53.4235C214.169 53.8193 214.425 54.3766 214.425 55.0954V57.3125C214.425 57.498 214.471 57.6434 214.561 57.7486C214.66 57.8539 214.784 57.9061 214.933 57.9061ZM213.099 57.2398V56.5129C212.587 56.2304 212.045 56.0888 211.475 56.0888C211.029 56.0888 210.678 56.1699 210.422 56.3311C210.174 56.4924 210.05 56.7188 210.05 57.0096C210.05 57.3162 210.166 57.551 210.397 57.7123C210.637 57.8735 210.959 57.9546 211.364 57.9546C211.695 57.9546 212.017 57.8902 212.331 57.7607C212.644 57.6237 212.901 57.4495 213.099 57.2398Z" fill="#002947" />
    </g>
  </symbol>

  <symbol id="btnPhone" width="20" height="20" viewBox="0 0 20 20" fill="none" xmlns="http://www.w3.org/2000/svg">
    <path d="M5.18 8.27L11.684 14.73C12.381 13.923 16.794 9.192 19 15.654C19 15.654 18.768 19 14.006 19C10.639 19 7.155 14.962 4.716 12.654C2.626 10.692 1 8.154 1 5.846C1 1.116 4.252 1 4.252 1C11.684 3.538 5.181 8.27 5.181 8.27H5.18Z" stroke="currentColor" stroke-miterlimit="10" stroke-linejoin="round" />
  </symbol>

  <symbol id="btnPhoneArrow" width="8" height="4" viewBox="0 0 8 4" fill="none" xmlns="http://www.w3.org/2000/svg">
    <path d="M3.6859 3.87947C3.76924 3.95665 3.88221 4 4 4C4.11779 4 4.23076 3.95665 4.3141 3.87947L7.87001 0.582471C7.95325 0.505197 8 0.40045 8 0.291236C8 0.182022 7.95325 0.0772746 7.87001 7.03891e-07L0.129992 2.72377e-08C0.0467542 0.0772739 3.33778e-07 0.182022 3.2423e-07 0.291235C3.14683e-07 0.400449 0.0467542 0.505196 0.129992 0.58247L3.6859 3.87947Z" fill="black" />
  </symbol>

  <symbol id="signal" width="16" height="18" viewBox="0 0 16 18" fill="none" xmlns="http://www.w3.org/2000/svg">
    <path d="M10.4999 14V14.625C10.4999 15.288 10.2366 15.9239 9.76772 16.3928C9.29887 16.8616 8.66299 17.125 7.99995 17.125C7.33691 17.125 6.70102 16.8616 6.23218 16.3928C5.76334 15.9239 5.49995 15.288 5.49995 14.625V14M14.7062 12.7277C13.7031 11.5 12.9949 10.875 12.9949 7.49023C12.9949 4.39063 11.4121 3.28633 10.1093 2.75C9.93628 2.67891 9.77339 2.51562 9.72065 2.33789C9.49214 1.56016 8.85151 0.875 7.99995 0.875C7.14839 0.875 6.50737 1.56055 6.2812 2.33867C6.22846 2.51836 6.06557 2.67891 5.89253 2.75C4.58823 3.28711 3.00698 4.3875 3.00698 7.49023C3.00503 10.875 2.29682 11.5 1.2937 12.7277C0.878074 13.2363 1.24214 14 1.96909 14H14.0347C14.7578 14 15.1195 13.234 14.7062 12.7277Z" stroke="currentColor" stroke-width="1.2" stroke-linecap="round" stroke-linejoin="round" />
  </symbol>

  <symbol id="btnArow" width="22" height="9" viewBox="0 0 22 9" fill="none" xmlns="http://www.w3.org/2000/svg">
    <path d="M1.5 3.7767C1.19624 3.7767 0.95 4.02294 0.95 4.3267C0.95 4.63045 1.19624 4.8767 1.5 4.8767V4.3267V3.7767ZM20.8889 4.71561C21.1037 4.50082 21.1037 4.15258 20.8889 3.93779L17.3887 0.437611C17.1739 0.222823 16.8257 0.222823 16.6109 0.437611C16.3961 0.652399 16.3961 1.00064 16.6109 1.21543L19.7222 4.3267L16.6109 7.43797C16.3961 7.65276 16.3961 8.001 16.6109 8.21579C16.8257 8.43057 17.1739 8.43057 17.3887 8.21579L20.8889 4.71561ZM1.5 4.3267V4.8767H20.5V4.3267V3.7767H1.5V4.3267Z" fill="currentColor" />
  </symbol>

  <symbol  id="search" width="18" height="18" viewBox="0 0 18 18" fill="none" xmlns="http://www.w3.org/2000/svg">
    <path d="M16.5 16.5L12.1692 12.1692M12.1692 12.1692C13.3414 10.997 13.9999 9.40725 13.9999 7.74958C13.9999 6.09192 13.3414 4.50215 12.1692 3.33C10.9971 2.15785 9.40729 1.49935 7.74962 1.49935C6.09196 1.49935 4.50219 2.15785 3.33004 3.33C2.15789 4.50215 1.49939 6.09192 1.49939 7.74958C1.49939 9.40725 2.15789 10.997 3.33004 12.1692C4.50219 13.3413 6.09196 13.9998 7.74962 13.9998C9.40729 13.9998 10.9971 13.3413 12.1692 12.1692Z" stroke="currentColor" stroke-width="1.2" stroke-linecap="round" stroke-linejoin="round" />
  </symbol>

  <symbol id="connection" width="20" height="20" viewBox="0 0 20 20" fill="none" xmlns="http://www.w3.org/2000/svg">
    <path d="M16.5625 3.75H3.4375C2.57456 3.75 1.875 4.44956 1.875 5.3125V14.6875C1.875 15.5504 2.57456 16.25 3.4375 16.25H16.5625C17.4254 16.25 18.125 15.5504 18.125 14.6875V5.3125C18.125 4.44956 17.4254 3.75 16.5625 3.75Z" stroke="currentColor" stroke-width="1.2" stroke-linecap="round" stroke-linejoin="round" />
    <path d="M4.375 6.25L10 10.625L15.625 6.25" stroke="currentColor" stroke-width="1.2" stroke-linecap="round" stroke-linejoin="round" />
  </symbol>

  <symbol id="burger" width="18" height="14" viewBox="0 0 18 14" fill="none" xmlns="http://www.w3.org/2000/svg">
    <path d="M1.2915 0.958334H16.7082M1.2915 7H16.7082M1.2915 13.0417H16.7082" stroke="currentColor" stroke-linecap="round" stroke-linejoin="round" />
  </symbol>

  <symbol id="close" width="14" height="14" viewBox="0 0 14 14" fill="none" xmlns="http://www.w3.org/2000/svg">
    <path d="M1 1L13 13M1 13L13 1" stroke="currentColor" stroke-width="1.4" stroke-linecap="round" stroke-linejoin="round" />
  </symbol>

  <symbol id="tv" width="10" height="10" viewBox="0 0 10 10" fill="none" xmlns="http://www.w3.org/2000/svg">
    <path d="M0.575736 8.3539C0.341421 8.58822 0.341421 8.96812 0.575736 9.20243C0.810051 9.43675 1.18995 9.43675 1.42426 9.20243L0.575736 8.3539ZM9.37817 0.999993C9.37817 0.668622 9.10955 0.399993 8.77817 0.399993L3.37817 0.399993C3.0468 0.399993 2.77817 0.668622 2.77817 0.999993C2.77817 1.33136 3.0468 1.59999 3.37817 1.59999H8.17817V6.39999C8.17817 6.73136 8.4468 6.99999 8.77817 6.99999C9.10955 6.99999 9.37817 6.73136 9.37817 6.39999L9.37817 0.999993ZM1 8.77817L1.42426 9.20243L9.20244 1.42426L8.77817 0.999993L8.35391 0.575729L0.575736 8.3539L1 8.77817Z" fill="white" />
  </symbol>

  <symbol id="dropdownNav" width="8" height="4" viewBox="0 0 8 4" fill="none" xmlns="http://www.w3.org/2000/svg">
    <path d="M3.6859 3.87947C3.76924 3.95665 3.88221 4 4 4C4.11779 4 4.23076 3.95665 4.3141 3.87947L7.87001 0.582471C7.95325 0.505197 8 0.40045 8 0.291236C8 0.182022 7.95325 0.0772746 7.87001 7.03891e-07L0.129992 2.72377e-08C0.0467542 0.0772739 3.33778e-07 0.182022 3.2423e-07 0.291235C3.14683e-07 0.400449 0.0467542 0.505196 0.129992 0.58247L3.6859 3.87947Z" fill="currentColor" />
  </symbol>

  <symbol id="arrowDetailed" width="21" height="20" viewBox="0 0 21 20" fill="none" xmlns="http://www.w3.org/2000/svg">
    <path d="M1 10.7767C0.696243 10.7767 0.45 11.0229 0.45 11.3267C0.45 11.6304 0.696243 11.8767 1 11.8767V10.7767ZM20.3889 11.7156C20.6037 11.5008 20.6037 11.1526 20.3889 10.9378L16.8887 7.4376C16.6739 7.22282 16.3257 7.22282 16.1109 7.4376C15.8961 7.65239 15.8961 8.00063 16.1109 8.21542L19.2222 11.3267L16.1109 14.438C15.8961 14.6527 15.8961 15.001 16.1109 15.2158C16.3257 15.4306 16.6739 15.4306 16.8887 15.2158L20.3889 11.7156ZM1 11.3267V11.8767H20V11.3267V10.7767H1V11.3267Z" fill="currentColor" />
  </symbol>

  <symbol id="arrowBtnSwiper1" width="18" height="10" viewBox="0 0 18 10" fill="none" xmlns="http://www.w3.org/2000/svg">
    <path d="M17 4.35C17.359 4.35 17.65 4.64101 17.65 5C17.65 5.35899 17.359 5.65 17 5.65V4.35ZM0.54038 5.45962C0.286539 5.20578 0.286539 4.79422 0.54038 4.54038L4.67695 0.403806C4.9308 0.149965 5.34235 0.149965 5.59619 0.403806C5.85003 0.657647 5.85003 1.0692 5.59619 1.32304L1.91924 5L5.59619 8.67696C5.85003 8.9308 5.85003 9.34235 5.59619 9.59619C5.34235 9.85003 4.9308 9.85003 4.67695 9.59619L0.54038 5.45962ZM17 5V5.65H1V5V4.35H17V5Z" fill="currentColor" />
  </symbol>

  <symbol id="arrowBtnSwiper2" width="18" height="10" viewBox="0 0 18 10" fill="none" xmlns="http://www.w3.org/2000/svg">
    <path d="M1 4.35C0.641015 4.35 0.35 4.64101 0.35 5C0.35 5.35899 0.641015 5.65 1 5.65V4.35ZM17.4596 5.45962C17.7135 5.20578 17.7135 4.79422 17.4596 4.54038L13.323 0.403806C13.0692 0.149965 12.6576 0.149965 12.4038 0.403806C12.15 0.657647 12.15 1.0692 12.4038 1.32304L16.0808 5L12.4038 8.67696C12.15 8.9308 12.15 9.34235 12.4038 9.59619C12.6576 9.85003 13.0692 9.85003 13.323 9.59619L17.4596 5.45962ZM1 5V5.65H17V5V4.35H1V5Z" fill="currentColor" />
  </symbol>

  <symbol id="arrowBtn1" width="14" height="10" viewBox="0 0 14 10" fill="none" xmlns="http://www.w3.org/2000/svg">
    <path d="M1 4.45C0.696243 4.45 0.45 4.69624 0.45 5C0.45 5.30376 0.696243 5.55 1 5.55V4.45ZM13.3889 5.38891C13.6037 5.17412 13.6037 4.82588 13.3889 4.61109L9.88873 1.11091C9.67394 0.896124 9.3257 0.896124 9.11091 1.11091C8.89612 1.3257 8.89612 1.67394 9.11091 1.88873L12.2222 5L9.11091 8.11127C8.89612 8.32606 8.89612 8.6743 9.11091 8.88909C9.3257 9.10388 9.67394 9.10388 9.88873 8.88909L13.3889 5.38891ZM1 5V5.55H13V5V4.45H1V5Z" fill="currentColor" />
  </symbol>

  <symbol id="pleayBtn" width="16" height="16" viewBox="0 0 16 16" fill="none" xmlns="http://www.w3.org/2000/svg">
    <mask id="mask0_99_35" style="mask-type:luminance" maskUnits="userSpaceOnUse" x="0" y="0" width="16" height="16">
      <path d="M8 15C11.8661 15 15 11.8661 15 8C15 4.1339 11.8661 1 8 1C4.1339 1 1 4.1339 1 8C1 11.8661 4.1339 15 8 15Z" fill="white" stroke="white" stroke-width="2" stroke-linejoin="round" />
      <path d="M6.60004 8V5.5752L8.70004 6.78759L10.8 8L8.70004 9.2124L6.60004 10.4248V8Z" fill="black" stroke="black" stroke-width="2" stroke-linejoin="round" />
    </mask>
    <g mask="url(#mask0_99_35)">
      <path d="M-0.400024 -0.399902H16.4V16.4001H-0.400024V-0.399902Z" fill="#EEF2F5" />
    </g>
  </symbol>

  <symbol id="arrowBtnSwiper21" width="62" height="10" viewBox="0 0 62 10" fill="none" xmlns="http://www.w3.org/2000/svg">
    <path d="M61 4.35C61.359 4.35 61.65 4.64101 61.65 5C61.65 5.35899 61.359 5.65 61 5.65V5V4.35ZM0.540381 5.45962C0.28654 5.20578 0.28654 4.79422 0.540381 4.54038L4.67696 0.403806C4.9308 0.149965 5.34235 0.149965 5.59619 0.403806C5.85003 0.657647 5.85003 1.0692 5.59619 1.32304L1.91924 5L5.59619 8.67696C5.85003 8.9308 5.85003 9.34235 5.59619 9.59619C5.34235 9.85003 4.9308 9.85003 4.67696 9.59619L0.540381 5.45962ZM61 5V5.65H1V5V4.35H61V5Z" fill="currentColor" />
  </symbol>

  <symbol id="arrowBtnSwiper22" width="62" height="10" viewBox="0 0 62 10" fill="none" xmlns="http://www.w3.org/2000/svg">
    <path d="M1 4.35C0.641015 4.35 0.35 4.64101 0.35 5C0.35 5.35899 0.641015 5.65 1 5.65V5V4.35ZM61.4596 5.45962C61.7135 5.20578 61.7135 4.79422 61.4596 4.54038L57.323 0.403806C57.0692 0.149965 56.6576 0.149965 56.4038 0.403806C56.15 0.657647 56.15 1.0692 56.4038 1.32304L60.0808 5L56.4038 8.67696C56.15 8.9308 56.15 9.34235 56.4038 9.59619C56.6576 9.85003 57.0692 9.85003 57.323 9.59619L61.4596 5.45962ZM1 5V5.65H61V5V4.35H1V5Z" fill="currentColor" />
  </symbol>

  <symbol id="arrowPortfolioName" width="13" height="7" viewBox="0 0 13 7" fill="none" xmlns="http://www.w3.org/2000/svg">
    <path d="M0.749999 0.624999L6.5 6.375L12.25 0.625" stroke="currentColor" stroke-width="1.2" stroke-linecap="round" stroke-linejoin="round" />
  </symbol>

  <symbol id="pathArrow" width="12" height="20" viewBox="0 0 12 20" fill="none" xmlns="http://www.w3.org/2000/svg">
    <path d="M4.0898 7.08573C4.14743 7.03095 4.22565 7.00011 4.30726 7C4.38887 6.99989 4.46718 7.03052 4.52497 7.08515L7.90048 10.2741C7.93203 10.304 7.95705 10.3394 7.97413 10.3784C7.99121 10.4174 8 10.4592 8 10.5015C8 10.5437 7.99121 10.5855 7.97413 10.6245C7.95705 10.6635 7.93203 10.699 7.90048 10.7288L4.52497 13.9184C4.46685 13.9714 4.38906 14.0008 4.30837 14C4.22767 13.9992 4.15052 13.9684 4.09354 13.9142C4.03656 13.8601 4.0043 13.7868 4.00372 13.7103C4.00313 13.6338 4.03427 13.5601 4.09042 13.5051L7.26896 10.5018L4.09042 7.49836C4.03264 7.44372 4.00012 7.36955 4 7.29217C3.99989 7.21479 4.03219 7.14053 4.0898 7.08573Z" fill="#6D91C6"/>
  </symbol>

  <symbol id="catdProjectArrow" width="28" height="20" viewBox="0 0 28 20" fill="none" xmlns="http://www.w3.org/2000/svg">
    <path d="M2 10.45C1.69624 10.45 1.45 10.6962 1.45 11C1.45 11.3038 1.69624 11.55 2 11.55V10.45ZM26.3889 11.3889C26.6037 11.1741 26.6037 10.8259 26.3889 10.6111L22.8887 7.11091C22.6739 6.89612 22.3257 6.89612 22.1109 7.11091C21.8961 7.3257 21.8961 7.67394 22.1109 7.88873L25.2222 11L22.1109 14.1113C21.8961 14.3261 21.8961 14.6743 22.1109 14.8891C22.3257 15.1039 22.6739 15.1039 22.8887 14.8891L26.3889 11.3889ZM2 11V11.55H26V11V10.45H2V11Z" fill="currentColor"/>
  </symbol>

  <symbol id="arrowNamber1" width="18" height="10" viewBox="0 0 18 10" fill="none" xmlns="http://www.w3.org/2000/svg">
    <path d="M17 4.35C17.359 4.35 17.65 4.64101 17.65 5C17.65 5.35899 17.359 5.65 17 5.65V4.35ZM0.54038 5.45962C0.286539 5.20578 0.286539 4.79422 0.54038 4.54038L4.67695 0.403806C4.9308 0.149965 5.34235 0.149965 5.59619 0.403806C5.85003 0.657647 5.85003 1.0692 5.59619 1.32304L1.91924 5L5.59619 8.67696C5.85003 8.9308 5.85003 9.34235 5.59619 9.59619C5.34235 9.85003 4.9308 9.85003 4.67695 9.59619L0.54038 5.45962ZM17 5V5.65H1V5V4.35H17V5Z" fill="currentColor"/>
  </symbol>

  <symbol id="arrowNamber2" width="18" height="10" viewBox="0 0 18 10" fill="none" xmlns="http://www.w3.org/2000/svg">
    <path d="M1 4.35C0.641015 4.35 0.35 4.64101 0.35 5C0.35 5.35899 0.641015 5.65 1 5.65V4.35ZM17.4596 5.45962C17.7135 5.20578 17.7135 4.79422 17.4596 4.54038L13.323 0.403806C13.0692 0.149965 12.6576 0.149965 12.4038 0.403806C12.15 0.657647 12.15 1.0692 12.4038 1.32304L16.0808 5L12.4038 8.67696C12.15 8.9308 12.15 9.34235 12.4038 9.59619C12.6576 9.85003 13.0692 9.85003 13.323 9.59619L17.4596 5.45962ZM1 5V5.65H17V5V4.35H1V5Z" fill="currentColor"/>
  </symbol>

  <symbol id="dropdownFilterArrow"  width="20" height="20" viewBox="0 0 20 20" fill="none" xmlns="http://www.w3.org/2000/svg">
    <path d="M4.5 9L10 15L15.5 9" stroke="currentColor" stroke-width="1.1" stroke-linecap="round" stroke-linejoin="round"/>
  </symbol>

  <symbol id="dropdownFilterThrow" width="10" height="10" viewBox="0 0 10 10" fill="none" xmlns="http://www.w3.org/2000/svg">
    <path d="M1 1L9 9M1 9L9 1" stroke="currentColor" stroke-linecap="round" stroke-linejoin="round"/>
  </symbol>

  <symbol id="dropdownFilterBack" width="28" height="20" viewBox="0 0 28 20" fill="none" xmlns="http://www.w3.org/2000/svg">
    <path d="M27 11.55C27.3038 11.55 27.55 11.3038 27.55 11C27.55 10.6962 27.3038 10.45 27 10.45V11V11.55ZM0.61109 10.6111C0.396301 10.8259 0.396301 11.1741 0.61109 11.3889L4.11127 14.8891C4.32606 15.1039 4.6743 15.1039 4.88909 14.8891C5.10387 14.6743 5.10387 14.3261 4.88909 14.1113L1.77782 11L4.88909 7.88873C5.10387 7.67394 5.10387 7.3257 4.88909 7.11091C4.6743 6.89612 4.32606 6.89612 4.11127 7.11091L0.61109 10.6111ZM27 11V10.45H1V11V11.55H27V11Z" fill="#6D91C6"/>
  </symbol>

  <symbol id="filterOpen" width="20" height="20" viewBox="0 0 20 20" fill="none" xmlns="http://www.w3.org/2000/svg">
    <path d="M3.75 5.83333H16.25M5.83333 9.99999H14.1667M8.33333 14.1667H11.6667" stroke="#1E1E1E" stroke-width="1.2" stroke-linecap="round" stroke-linejoin="round"/>
  </symbol>

  <symbol id="filterReset" width="10" height="10" viewBox="0 0 10 10" fill="none" xmlns="http://www.w3.org/2000/svg">
    <path d="M1 1L9 9M1 9L9 1" stroke="white" stroke-linecap="round" stroke-linejoin="round"/>
  </symbol>

  <symbol id="exampleLink" width="11" height="11" viewBox="0 0 11 11" fill="none" xmlns="http://www.w3.org/2000/svg">
    <path d="M0.575736 9.06109C0.341421 9.2954 0.341421 9.6753 0.575736 9.90962C0.810051 10.1439 1.18995 10.1439 1.42426 9.90962L0.575736 9.06109ZM10.0853 1.00007C10.0853 0.668699 9.81665 0.40007 9.48528 0.40007L4.08528 0.40007C3.75391 0.400071 3.48528 0.668699 3.48528 1.00007C3.48528 1.33144 3.75391 1.60007 4.08528 1.60007L8.88528 1.60007L8.88528 6.40007C8.88528 6.73144 9.15391 7.00007 9.48528 7.00007C9.81665 7.00007 10.0853 6.73144 10.0853 6.40007L10.0853 1.00007ZM1 9.48535L1.42426 9.90962L9.90955 1.42433L9.48528 1.00007L9.06102 0.575806L0.575736 9.06109L1 9.48535Z" fill="white"/>
  </symbol>

  <symbol id="viewAll" width="13" height="14" viewBox="0 0 13 14" fill="none" xmlns="http://www.w3.org/2000/svg">
    <path d="M6.5 1.34314L6.5 12.6568M0.843145 6.99999L12.1569 6.99999" stroke="#1E1E1E" stroke-linecap="round" stroke-linejoin="round"/>
  </symbol>

  <symbol id="viewAllNew" width="13" height="14" viewBox="0 0 13 14" fill="none" xmlns="http://www.w3.org/2000/svg">
    <path d="M6.5 1.34314L6.5 12.6568M0.843145 6.99999L12.1569 6.99999" stroke="currentColor" stroke-linecap="round" stroke-linejoin="round"/>
  </symbol>

  <symbol id="closeSearch" width="14" height="14" viewBox="0 0 14 14" fill="none" xmlns="http://www.w3.org/2000/svg">
    <path d="M1 1L13 13M1 13L13 1" stroke="white" stroke-width="1.2" stroke-linecap="round" stroke-linejoin="round"/>
  </symbol>

  <symbol id="searchMobile" width="16" height="16" viewBox="0 0 16 16" fill="none" xmlns="http://www.w3.org/2000/svg">
    <path d="M15.5007 15.5002L11.1698 11.1693M11.1698 11.1693C12.342 9.99718 13.0005 8.40741 13.0005 6.74975C13.0005 5.09208 12.342 3.50231 11.1698 2.33016C9.99767 1.15802 8.4079 0.499512 6.75023 0.499512C5.09257 0.499512 3.5028 1.15802 2.33065 2.33016C1.15851 3.50231 0.5 5.09208 0.5 6.74975C0.5 8.40741 1.1585 9.99718 2.33065 11.1693C3.5028 12.3415 5.09257 13 6.75023 13C8.4079 13 9.99767 12.3415 11.1698 11.1693Z" stroke="white" stroke-linecap="round" stroke-linejoin="round"/>
  </symbol>

  <symbol id="showMore" width="13" height="13" viewBox="0 0 13 13" fill="none" xmlns="http://www.w3.org/2000/svg">
    <path d="M6.5 1L6.5 12.3137M0.843145 6.65685L12.1569 6.65685" stroke="white" stroke-linecap="round" stroke-linejoin="round"/>
  </symbol>

  <symbol id="download" width="25" height="24" viewBox="0 0 25 24" fill="none" xmlns="http://www.w3.org/2000/svg">
    <path d="M4.5 16.004V17C4.5 17.7956 4.81607 18.5587 5.37868 19.1213C5.94129 19.6839 6.70435 20 7.5 20H17.5C18.2956 20 19.0587 19.6839 19.6213 19.1213C20.1839 18.5587 20.5 17.7956 20.5 17V16M12.5 4.5V15.5M12.5 15.5L16 12M12.5 15.5L9 12" stroke="white" stroke-width="1.5" stroke-linecap="round" stroke-linejoin="round"/>
  </symbol>

  <symbol id="castomFile" width="20" height="20" viewBox="0 0 20 20" fill="none" xmlns="http://www.w3.org/2000/svg">
    <rect width="20" height="20" rx="10" fill="#002947"/>
    <path d="M6 15H14M10 12.25V4M10 4L12.3333 6.40625M10 4L7.66667 6.40625" stroke="white" stroke-width="1.2" stroke-linecap="round" stroke-linejoin="round"/>
  </symbol>

  <symbol id="mapPreviewSwiperBtn1" width="28" height="20" viewBox="0 0 28 20" fill="none" xmlns="http://www.w3.org/2000/svg">
    <path d="M27 11.55C27.3038 11.55 27.55 11.3038 27.55 11C27.55 10.6962 27.3038 10.45 27 10.45V11.55ZM0.61109 10.6111C0.396301 10.8259 0.396301 11.1741 0.61109 11.3889L4.11127 14.8891C4.32606 15.1039 4.6743 15.1039 4.88909 14.8891C5.10387 14.6743 5.10387 14.3261 4.88909 14.1113L1.77782 11L4.88909 7.88873C5.10387 7.67394 5.10387 7.3257 4.88909 7.11091C4.6743 6.89612 4.32606 6.89612 4.11127 7.11091L0.61109 10.6111ZM27 11V10.45H1V11V11.55H27V11Z" fill="#6D91C6"/>
  </symbol>

  <symbol id="mapPreviewSwiperBtn2" width="28" height="20" viewBox="0 0 28 20" fill="none" xmlns="http://www.w3.org/2000/svg">
    <path d="M1 10.45C0.696243 10.45 0.45 10.6962 0.45 11C0.45 11.3038 0.696243 11.55 1 11.55V10.45ZM27.3889 11.3889C27.6037 11.1741 27.6037 10.8259 27.3889 10.6111L23.8887 7.11091C23.6739 6.89612 23.3257 6.89612 23.1109 7.11091C22.8961 7.3257 22.8961 7.67394 23.1109 7.88873L26.2222 11L23.1109 14.1113C22.8961 14.3261 22.8961 14.6743 23.1109 14.8891C23.3257 15.1039 23.6739 15.1039 23.8887 14.8891L27.3889 11.3889ZM1 11V11.55H27V11V10.45H1V11Z" fill="#6D91C6"/>
  </symbol>

  <symbol id="mapTagRegion" width="28" height="38" viewBox="0 0 28 38" fill="none" xmlns="http://www.w3.org/2000/svg">
    <path fill-rule="evenodd" clip-rule="evenodd" d="M16.6583 34.1818C21.557 28.4636 27.75 21.233 27.75 14.7301C27.75 6.96413 21.5937 0.666626 14 0.666626C6.40633 0.666626 0.25 6.96413 0.25 14.7301C0.25 21.233 6.443 28.4636 11.3417 34.1818C12.295 35.2965 13.2007 36.3506 14 37.3333C14.7993 36.3506 15.705 35.2965 16.6583 34.1818ZM14 19C14.6621 19 15.3177 18.8696 15.9294 18.6162C16.541 18.3628 17.0968 17.9915 17.565 17.5233C18.0332 17.0551 18.4045 16.4993 18.6579 15.8877C18.9113 15.276 19.0417 14.6204 19.0417 13.9583C19.0417 13.2962 18.9113 12.6406 18.6579 12.0289C18.4045 11.4172 18.0332 10.8615 17.565 10.3933C17.0968 9.92513 16.541 9.55377 15.9294 9.3004C15.3177 9.04703 14.6621 8.91663 14 8.91663C12.6629 8.91663 11.3805 9.4478 10.435 10.3933C9.48951 11.3388 8.95833 12.6212 8.95833 13.9583C8.95833 15.2954 9.48951 16.5778 10.435 17.5233C11.3805 18.4688 12.6629 19 14 19Z" fill="currentColor"/>
  </symbol>

  <symbol id="jopTabBtn" xmlns="http://www.w3.org/2000/svg" width="16" height="16" viewBox="0 0 16 16" fill="none">
    <path d="M0.75 7.82104H14.8921M7.82107 14.8921V0.749977" stroke="white" stroke-width="1.5" stroke-linecap="round" stroke-linejoin="round"/>
  </symbol>

  <symbol id="arrowBtn3" xmlns="http://www.w3.org/2000/svg" width="9" height="10" viewBox="0 0 9 10" fill="none">
    <path d="M5.01797 0.600098C5.01797 0.268727 4.74934 9.76179e-05 4.41797 9.76324e-05C4.0866 9.76469e-05 3.81797 0.268727 3.81797 0.600098L4.41797 0.600098L5.01797 0.600098ZM3.99371 9.02436C4.22802 9.25868 4.60792 9.25868 4.84223 9.02436L8.66061 5.20598C8.89492 4.97167 8.89492 4.59177 8.66061 4.35746C8.42629 4.12314 8.0464 4.12314 7.81208 4.35746L4.41797 7.75157L1.02386 4.35746C0.789542 4.12314 0.409643 4.12314 0.175328 4.35746C-0.0589865 4.59177 -0.0589865 4.97167 0.175328 5.20599L3.99371 9.02436ZM4.41797 0.600098L3.81797 0.600098L3.81797 8.6001L4.41797 8.6001L5.01797 8.6001L5.01797 0.600098L4.41797 0.600098Z" fill="white"/>
  </symbol>

  <symbol id="dropdownPresent" xmlns="http://www.w3.org/2000/svg" width="24" height="24" viewBox="0 0 24 24" fill="none">
    <path d="M11.5288 14.8192C11.6539 14.935 11.8233 15 12 15C12.1767 15 12.3461 14.935 12.4712 14.8192L17.805 9.87371C17.9299 9.7578 18 9.60068 18 9.43686C18 9.27304 17.9299 9.11591 17.805 9L6.19499 9C6.07013 9.11591 6 9.27303 6 9.43685C6 9.60067 6.07013 9.7578 6.19499 9.87371L11.5288 14.8192Z" fill="#1E1E1E"/>
  </symbol>

</svg>