<svg width="24" height="24" viewBox="0 0 24 24" fill="none" xmlns="http://www.w3.org/2000/svg">
<rect width="24" height="24" rx="12" fill="#002947"/>
<path d="M7.57574 15.3539C7.34142 15.5882 7.34142 15.9681 7.57574 16.2025C7.81005 16.4368 8.18995 16.4368 8.42426 16.2025L8 15.7782L7.57574 15.3539ZM16.3782 8.00002C16.3782 7.66865 16.1095 7.40002 15.7782 7.40002L10.3782 7.40002C10.0468 7.40002 9.77817 7.66865 9.77817 8.00002C9.77817 8.33139 10.0468 8.60002 10.3782 8.60002H15.1782V13.4C15.1782 13.7314 15.4468 14 15.7782 14C16.1095 14 16.3782 13.7314 16.3782 13.4L16.3782 8.00002ZM8 15.7782L8.42426 16.2025L16.2024 8.42429L15.7782 8.00002L15.3539 7.57576L7.57574 15.3539L8 15.7782Z" fill="white"/>
</svg>
