<svg width="314" height="201" viewBox="0 0 314 201" fill="none" xmlns="http://www.w3.org/2000/svg">
<path fill-rule="evenodd" clip-rule="evenodd" d="M310.172 155.011C310.172 154.097 311.115 152.809 312.269 152.154C313.421 151.499 313.186 150.213 311.743 149.299C310.302 148.383 308.297 147.417 307.288 147.156C306.281 146.894 303.569 145.393 301.265 143.822C298.959 142.252 296.953 139.68 296.81 138.109C296.664 136.539 296.547 135.252 296.547 135.252C296.547 135.252 295.13 133.218 293.403 130.731C291.675 128.243 288.256 126.316 285.805 126.446C283.355 126.578 280.762 125.506 280.041 124.063C279.32 122.624 276.725 120.697 274.275 119.779C271.826 118.864 268.761 118.649 267.464 119.304C266.167 119.96 264.163 119.531 263.011 118.354C261.857 117.177 260.444 114.712 259.866 112.877C259.288 111.045 257.875 109.651 256.721 109.781C255.569 109.915 253.683 110.557 252.531 111.209C251.377 111.864 249.49 113.042 248.336 113.829C247.183 114.617 245.181 116.222 243.883 117.399C242.586 118.576 238.459 119.436 234.712 119.304C230.967 119.174 226.723 119.174 225.28 119.304C223.839 119.436 220.892 118.471 218.73 117.162C216.569 115.855 213.857 113.497 212.705 111.927C211.551 110.356 210.138 107.998 209.56 106.691C208.982 105.38 206.744 104.63 204.581 105.023C202.419 105.416 199.235 104.345 197.507 102.64C195.779 100.938 192.593 99.7607 190.433 100.023C188.271 100.286 184.971 99.429 183.096 98.1213C181.222 96.8108 177.804 95.2035 175.5 94.5516C173.194 93.8944 170.599 91.8589 169.734 90.0266C168.871 88.1941 166.276 87.4438 163.971 88.3583C161.665 89.2762 158.598 89.8115 157.157 89.5523C155.716 89.2897 153.121 88.6444 151.394 88.1226C149.665 87.5993 148.957 85.4574 149.822 83.3624C150.685 81.2674 149.744 78.0529 147.725 76.2205C145.708 74.3867 144.056 71.4958 144.056 69.7935C144.056 68.0897 144.645 66.1628 145.367 65.509C146.088 64.8537 145.617 63.0313 144.319 61.4615C143.022 59.8912 141.018 58.6043 139.864 58.6043C138.71 58.6043 137.18 58.0695 136.458 57.4137C135.739 56.7603 133.852 55.2597 132.268 54.0812C130.682 52.9021 128.443 53.0106 127.287 54.3197C126.135 55.6307 124.366 56.2726 123.358 55.7489C122.351 55.2242 119.756 55.3307 117.594 55.986C115.433 56.6418 111.896 56.6418 109.733 55.986C107.573 55.3307 105.332 53.832 104.756 52.6534C104.18 51.4744 103.943 48.6905 104.232 46.465C104.521 44.238 102.752 41.7758 100.301 40.9899C97.8514 40.206 93.844 39.4537 91.3944 39.3236C88.9452 39.1931 85.8784 39.2996 84.5812 39.5603C83.2839 39.8229 80.3366 40.145 78.0328 40.2751C75.7268 40.4056 72.7778 39.977 71.4806 39.3236C70.1833 38.6698 69.005 37.0625 68.8597 35.7534C68.716 34.4428 67.4187 32.837 65.9778 32.1817C64.5369 31.5279 62.8872 30.1358 62.3113 29.0892C61.7332 28.0394 62.3238 26.5406 63.6216 25.7547C64.9188 24.9708 66.2145 23.1485 66.5014 21.7074C66.7904 20.2677 67.4969 18.1252 68.075 16.9466C68.6509 15.7681 69.1223 13.0903 69.1223 10.9953C69.1223 8.90225 68.8856 5.79625 68.5987 4.09444C68.3118 2.39216 68.075 1 68.075 1C68.075 1 66.4232 1.10701 64.4042 1.23711C62.3873 1.36768 59.6772 2.97493 58.3799 4.80877C57.0822 6.64162 53.5446 8.89026 50.519 9.80667C47.4933 10.7226 44.1903 10.5095 43.1821 9.33095C42.1755 8.15191 39.5805 8.04389 37.4199 9.09377C35.2577 10.1403 32.8995 12.3894 32.1782 14.0912C31.4585 15.7935 29.9267 18.1491 28.7727 19.3277C27.6207 20.5062 26.6775 22.7573 26.6775 24.3271C26.6775 25.8969 25.8516 27.9342 24.8429 28.8488C23.8347 29.7652 22.0656 31.479 20.9116 32.6575C19.7597 33.8365 17.6387 36.3002 16.1957 38.1331C14.7547 39.9669 12.7489 43.0729 11.7407 45.0359C10.7341 47.0003 10.2607 49.2494 10.695 50.0352C11.1273 50.8211 11.0099 51.9996 10.434 52.6549C9.85593 53.3087 8.79542 54.8075 8.07575 55.986C7.35449 57.1651 6.76318 59.2004 6.76318 60.5096C6.76318 61.8187 5.46603 64.7111 3.88186 66.9366C2.29722 69.1617 1 70.9826 1 70.9826C1 70.9826 1.94103 71.7344 3.09505 72.6508C4.2491 73.5653 5.1923 75.2791 5.1923 76.4577C5.1923 77.6362 6.60683 79.2435 8.33681 80.0279C10.0647 80.8138 12.4229 82.3125 13.5769 83.359C14.7304 84.4075 17.0887 86.9763 18.8165 89.0712C20.5465 91.1696 23.3761 94.7038 25.1061 96.9274C26.834 99.153 28.7204 102.475 29.2984 104.308C29.8744 106.141 29.1657 108.07 27.7269 108.593C26.2838 109.118 25.1061 110.615 25.1061 111.924C25.1061 113.235 25.4585 116.554 25.8907 119.304C26.3251 122.055 27.1489 125.054 27.7269 125.972C28.3007 126.886 29.1266 128.815 29.5594 130.257C29.9916 131.696 29.6377 135.015 28.7727 137.632C27.9098 140.252 27.2012 143.144 27.2012 144.059C27.2012 144.977 28.8508 146.584 30.8698 147.631C32.8867 148.679 35.8357 150.286 37.4199 151.201C39.0046 152.118 40.5369 155.011 40.8238 157.628C41.1129 160.247 41.3496 163.89 41.3496 165.723C41.3496 167.555 42.1755 169.913 43.1821 170.961C44.1903 172.007 45.0161 172.864 45.0161 172.864C45.0161 172.864 46.7852 173.184 48.9474 173.578C51.1081 173.972 54.4112 172.9 56.2843 171.196C58.1559 169.494 60.9876 168.532 62.5722 169.054C64.1564 169.577 66.7514 169.472 68.336 168.819C69.9223 168.163 71.926 167.198 72.791 166.676C73.6539 166.153 75.5423 165.938 76.9812 166.197C78.4242 166.459 80.8998 165.498 82.4839 164.055C84.0702 162.615 87.2544 160.903 89.5582 160.249C91.8641 159.594 94.3396 158.093 95.0609 156.916C95.7827 155.74 97.1972 154.881 98.2038 155.011C99.2126 155.141 101.926 155.998 104.232 156.913C106.538 157.831 110.194 159.331 112.354 160.249C114.517 161.166 117.346 161.915 118.643 161.915C119.941 161.915 122.062 163.201 123.359 164.771C124.657 166.343 126.424 169.235 127.289 171.198C128.154 173.162 130.277 176.697 132.005 179.054C133.733 181.412 135.739 183.981 136.458 184.767C137.18 185.554 138.595 187.697 139.603 189.529C140.612 191.358 143.441 193.395 145.891 194.047C148.342 194.703 151.287 195.774 152.441 196.43C153.595 197.086 156.66 198.158 159.254 198.813C161.849 199.465 163.971 200 163.971 200C163.971 200 166.209 198.929 168.948 197.619C171.686 196.31 174.279 193.952 174.711 192.382C175.146 190.813 176.795 188.24 178.38 186.67C179.966 185.098 182.678 183.92 184.406 184.05C186.136 184.184 188.14 183.434 188.861 182.387C189.583 181.339 190.998 178.982 192.006 177.149C193.012 175.317 194.43 172.424 195.151 170.722C195.87 169.02 195.988 166.986 195.412 166.2C194.834 165.413 195.188 164.236 196.197 163.58C197.207 162.925 198.385 161.213 198.817 159.77C199.252 158.33 201.608 157.583 204.057 158.107C206.509 158.628 210.399 159.059 212.705 159.059H221.351C223.8 159.059 226.512 159.916 227.375 160.964C228.24 162.01 230.009 163.296 231.307 163.821C232.604 164.343 234.725 164.877 236.023 165.008C237.32 165.14 240.502 164.71 243.097 164.055C245.691 163.403 248.521 163.722 249.384 164.769C250.249 165.817 253.079 167.103 255.674 167.624C258.268 168.149 261.216 169.115 262.224 169.767C263.233 170.424 266.062 169.352 268.511 167.388C270.963 165.425 274.499 162.961 276.372 161.912C278.246 160.866 281.782 161.402 284.233 163.106C286.682 164.808 289.512 166.093 290.521 165.963C291.529 165.829 292.355 165.723 292.355 165.723C292.355 165.723 296.365 163.687 301.265 161.198C306.164 158.713 310.172 155.926 310.172 155.011Z" fill="white" fill-opacity="0.14" stroke="white" stroke-width="1.2"/>
<path fill-rule="evenodd" clip-rule="evenodd" d="M169.432 143.363L169.435 143.361L169.443 143.356L169.465 143.339L169.554 143.275C169.63 143.22 169.737 143.138 169.876 143.032C170.152 142.82 170.544 142.509 171.011 142.109C172.237 141.061 173.384 139.923 174.442 138.704C176.923 135.835 179.5 131.74 179.5 127.057C179.5 124.26 178.395 121.575 176.427 119.595C175.454 118.614 174.297 117.837 173.022 117.305C171.748 116.774 170.381 116.501 169 116.5C167.619 116.501 166.252 116.774 164.978 117.305C163.703 117.836 162.546 118.614 161.574 119.594C159.604 121.578 158.499 124.262 158.5 127.058C158.5 131.74 161.077 135.835 163.558 138.704C164.616 139.923 165.763 141.061 166.989 142.109C167.457 142.509 167.848 142.82 168.124 143.032C168.259 143.136 168.396 143.239 168.534 143.339L168.558 143.356L168.565 143.361L168.568 143.363C168.827 143.545 169.173 143.545 169.432 143.363ZM172.75 127C172.75 127.995 172.355 128.948 171.652 129.652C170.948 130.355 169.995 130.75 169 130.75C168.005 130.75 167.052 130.355 166.348 129.652C165.645 128.948 165.25 127.995 165.25 127C165.25 126.005 165.645 125.052 166.348 124.348C167.052 123.645 168.005 123.25 169 123.25C169.995 123.25 170.948 123.645 171.652 124.348C172.355 125.052 172.75 126.005 172.75 127Z" fill="white"/>
<path d="M145.746 163V150.4H147.114V155.629H150.948V156.898H147.114V163H145.746ZM156.753 163.27C155.817 163.27 154.95 163.105 154.152 162.775C153.354 162.439 152.658 161.974 152.064 161.38C151.47 160.786 151.008 160.09 150.678 159.292C150.348 158.494 150.183 157.63 150.183 156.7C150.183 155.764 150.348 154.897 150.678 154.099C151.008 153.301 151.47 152.605 152.064 152.011C152.658 151.417 153.354 150.955 154.152 150.625C154.95 150.295 155.817 150.13 156.753 150.13C157.677 150.13 158.535 150.298 159.327 150.634C160.125 150.97 160.821 151.438 161.415 152.038C162.015 152.638 162.48 153.337 162.81 154.135C163.146 154.927 163.314 155.782 163.314 156.7C163.314 157.63 163.146 158.494 162.81 159.292C162.48 160.09 162.015 160.786 161.415 161.38C160.821 161.974 160.125 162.439 159.327 162.775C158.535 163.105 157.677 163.27 156.753 163.27ZM156.753 161.965C157.467 161.965 158.136 161.842 158.76 161.596C159.384 161.344 159.93 160.987 160.398 160.525C160.866 160.057 161.232 159.502 161.496 158.86C161.76 158.212 161.892 157.492 161.892 156.7C161.892 155.644 161.661 154.723 161.199 153.937C160.743 153.145 160.125 152.53 159.345 152.092C158.571 151.654 157.707 151.435 156.753 151.435C156.033 151.435 155.361 151.561 154.737 151.813C154.119 152.059 153.573 152.413 153.099 152.875C152.631 153.337 152.265 153.892 152.001 154.54C151.737 155.182 151.605 155.902 151.605 156.7C151.605 157.756 151.833 158.68 152.289 159.472C152.751 160.258 153.372 160.87 154.152 161.308C154.932 161.746 155.799 161.965 156.753 161.965ZM165.761 163V154.27H171.332V155.44H167.093V163H165.761ZM173.302 166.78V154.27H174.571V155.656C174.943 155.176 175.411 154.78 175.975 154.468C176.539 154.156 177.262 154 178.144 154C179.014 154 179.779 154.207 180.439 154.621C181.105 155.035 181.621 155.593 181.987 156.295C182.359 156.997 182.545 157.777 182.545 158.635C182.545 159.271 182.437 159.871 182.221 160.435C182.011 160.993 181.711 161.485 181.321 161.911C180.931 162.337 180.466 162.67 179.926 162.91C179.386 163.15 178.789 163.27 178.135 163.27C177.331 163.27 176.641 163.12 176.065 162.82C175.489 162.514 175.012 162.112 174.634 161.614V166.78H173.302ZM177.901 162.037C178.537 162.037 179.101 161.899 179.593 161.623C180.085 161.341 180.469 160.948 180.745 160.444C181.027 159.934 181.168 159.331 181.168 158.635C181.168 157.939 181.027 157.336 180.745 156.826C180.463 156.316 180.076 155.923 179.584 155.647C179.098 155.371 178.537 155.233 177.901 155.233C177.265 155.233 176.701 155.371 176.209 155.647C175.717 155.923 175.33 156.316 175.048 156.826C174.772 157.336 174.634 157.939 174.634 158.635C174.634 159.331 174.772 159.934 175.048 160.444C175.33 160.948 175.717 161.341 176.209 161.623C176.701 161.899 177.265 162.037 177.901 162.037ZM187.113 163.27C186.489 163.27 185.949 163.156 185.493 162.928C185.037 162.7 184.686 162.382 184.44 161.974C184.194 161.56 184.071 161.077 184.071 160.525C184.071 160.069 184.188 159.652 184.422 159.274C184.662 158.89 185.037 158.572 185.547 158.32C186.063 158.062 186.735 157.891 187.563 157.807C188.391 157.723 189.399 157.747 190.587 157.879L190.632 158.932C189.654 158.806 188.826 158.761 188.148 158.797C187.476 158.833 186.936 158.929 186.528 159.085C186.12 159.241 185.823 159.442 185.637 159.688C185.457 159.934 185.367 160.204 185.367 160.498C185.367 161.002 185.544 161.395 185.898 161.677C186.252 161.959 186.744 162.1 187.374 162.1C187.902 162.1 188.376 162.001 188.796 161.803C189.216 161.605 189.549 161.332 189.795 160.984C190.041 160.636 190.164 160.237 190.164 159.787V157.24C190.164 156.796 190.068 156.415 189.876 156.097C189.684 155.779 189.402 155.533 189.03 155.359C188.664 155.185 188.217 155.098 187.689 155.098C187.233 155.098 186.777 155.167 186.321 155.305C185.871 155.443 185.43 155.671 184.998 155.989L184.566 154.9C185.094 154.528 185.637 154.27 186.195 154.126C186.753 153.982 187.284 153.91 187.788 153.91C188.586 153.91 189.258 154.036 189.804 154.288C190.35 154.54 190.764 154.912 191.046 155.404C191.328 155.896 191.469 156.505 191.469 157.231V163H190.209V161.893C189.897 162.337 189.468 162.679 188.922 162.919C188.376 163.153 187.773 163.27 187.113 163.27Z" fill="white"/>
</svg>
